<mxfile host="app.diagrams.net" modified="2022-01-19T21:11:42.506Z" agent="5.0 (Windows NT 10.0; Win64; x64) AppleWebKit/537.36 (KHTML, like Gecko) Chrome/97.0.4692.71 Safari/537.36" etag="OEkQANY2k708oBg0RP4y" version="16.4.2" type="github">
  <diagram id="C5RBs43oDa-KdzZeNtuy" name="Page-1">
    <mxGraphModel dx="1422" dy="794" grid="1" gridSize="10" guides="1" tooltips="1" connect="1" arrows="1" fold="1" page="1" pageScale="1" pageWidth="827" pageHeight="1169" math="0" shadow="0">
      <root>
        <mxCell id="WIyWlLk6GJQsqaUBKTNV-0" />
        <mxCell id="WIyWlLk6GJQsqaUBKTNV-1" parent="WIyWlLk6GJQsqaUBKTNV-0" />
        <mxCell id="T0smnaooiY0XDKx1orWB-1" value="" style="edgeStyle=orthogonalEdgeStyle;rounded=0;orthogonalLoop=1;jettySize=auto;html=1;" parent="WIyWlLk6GJQsqaUBKTNV-1" source="WIyWlLk6GJQsqaUBKTNV-7" target="T0smnaooiY0XDKx1orWB-0" edge="1">
          <mxGeometry relative="1" as="geometry">
            <Array as="points">
              <mxPoint x="209" y="140" />
              <mxPoint x="265" y="140" />
            </Array>
          </mxGeometry>
        </mxCell>
        <mxCell id="T0smnaooiY0XDKx1orWB-3" value="" style="edgeStyle=orthogonalEdgeStyle;rounded=0;orthogonalLoop=1;jettySize=auto;html=1;" parent="WIyWlLk6GJQsqaUBKTNV-1" source="WIyWlLk6GJQsqaUBKTNV-7" target="T0smnaooiY0XDKx1orWB-2" edge="1">
          <mxGeometry relative="1" as="geometry" />
        </mxCell>
        <mxCell id="T0smnaooiY0XDKx1orWB-5" value="" style="edgeStyle=orthogonalEdgeStyle;rounded=0;orthogonalLoop=1;jettySize=auto;html=1;" parent="WIyWlLk6GJQsqaUBKTNV-1" source="WIyWlLk6GJQsqaUBKTNV-7" target="T0smnaooiY0XDKx1orWB-4" edge="1">
          <mxGeometry relative="1" as="geometry" />
        </mxCell>
        <mxCell id="T0smnaooiY0XDKx1orWB-7" value="" style="edgeStyle=orthogonalEdgeStyle;rounded=0;orthogonalLoop=1;jettySize=auto;html=1;" parent="WIyWlLk6GJQsqaUBKTNV-1" source="WIyWlLk6GJQsqaUBKTNV-7" target="T0smnaooiY0XDKx1orWB-6" edge="1">
          <mxGeometry relative="1" as="geometry" />
        </mxCell>
        <mxCell id="ASNfStdSZMWCCT5HoIRm-17" value="" style="edgeStyle=orthogonalEdgeStyle;rounded=0;orthogonalLoop=1;jettySize=auto;html=1;" edge="1" parent="WIyWlLk6GJQsqaUBKTNV-1" source="WIyWlLk6GJQsqaUBKTNV-7" target="ASNfStdSZMWCCT5HoIRm-16">
          <mxGeometry relative="1" as="geometry" />
        </mxCell>
        <mxCell id="ASNfStdSZMWCCT5HoIRm-19" value="" style="edgeStyle=orthogonalEdgeStyle;curved=0;rounded=1;sketch=0;orthogonalLoop=1;jettySize=auto;html=1;" edge="1" parent="WIyWlLk6GJQsqaUBKTNV-1" source="WIyWlLk6GJQsqaUBKTNV-7" target="ASNfStdSZMWCCT5HoIRm-18">
          <mxGeometry relative="1" as="geometry" />
        </mxCell>
        <mxCell id="ASNfStdSZMWCCT5HoIRm-21" value="" style="edgeStyle=orthogonalEdgeStyle;curved=0;rounded=1;sketch=0;orthogonalLoop=1;jettySize=auto;html=1;" edge="1" parent="WIyWlLk6GJQsqaUBKTNV-1" source="WIyWlLk6GJQsqaUBKTNV-7" target="ASNfStdSZMWCCT5HoIRm-20">
          <mxGeometry relative="1" as="geometry" />
        </mxCell>
        <mxCell id="ASNfStdSZMWCCT5HoIRm-24" value="" style="edgeStyle=orthogonalEdgeStyle;curved=0;rounded=1;sketch=0;orthogonalLoop=1;jettySize=auto;html=1;" edge="1" parent="WIyWlLk6GJQsqaUBKTNV-1" source="WIyWlLk6GJQsqaUBKTNV-7" target="ASNfStdSZMWCCT5HoIRm-23">
          <mxGeometry relative="1" as="geometry" />
        </mxCell>
        <mxCell id="ASNfStdSZMWCCT5HoIRm-26" value="" style="edgeStyle=orthogonalEdgeStyle;curved=0;rounded=1;sketch=0;orthogonalLoop=1;jettySize=auto;html=1;" edge="1" parent="WIyWlLk6GJQsqaUBKTNV-1" source="WIyWlLk6GJQsqaUBKTNV-7" target="ASNfStdSZMWCCT5HoIRm-25">
          <mxGeometry relative="1" as="geometry" />
        </mxCell>
        <mxCell id="ASNfStdSZMWCCT5HoIRm-29" value="" style="edgeStyle=orthogonalEdgeStyle;curved=0;rounded=1;sketch=0;orthogonalLoop=1;jettySize=auto;html=1;" edge="1" parent="WIyWlLk6GJQsqaUBKTNV-1" source="WIyWlLk6GJQsqaUBKTNV-7" target="ASNfStdSZMWCCT5HoIRm-28">
          <mxGeometry relative="1" as="geometry" />
        </mxCell>
        <mxCell id="WIyWlLk6GJQsqaUBKTNV-7" value="Пользователь" style="rounded=1;whiteSpace=wrap;html=1;fontSize=12;glass=0;strokeWidth=1;shadow=0;fillColor=#ffe6cc;strokeColor=#d79b00;" parent="WIyWlLk6GJQsqaUBKTNV-1" vertex="1">
          <mxGeometry x="149" y="160" width="120" height="40" as="geometry" />
        </mxCell>
        <mxCell id="T0smnaooiY0XDKx1orWB-0" value="ID" style="ellipse;whiteSpace=wrap;html=1;rounded=1;shadow=0;strokeWidth=1;glass=0;" parent="WIyWlLk6GJQsqaUBKTNV-1" vertex="1">
          <mxGeometry x="210" y="80" width="90" height="40" as="geometry" />
        </mxCell>
        <mxCell id="T0smnaooiY0XDKx1orWB-2" value="Логин" style="ellipse;whiteSpace=wrap;html=1;rounded=1;shadow=0;strokeWidth=1;glass=0;" parent="WIyWlLk6GJQsqaUBKTNV-1" vertex="1">
          <mxGeometry x="120" y="90" width="90" height="40" as="geometry" />
        </mxCell>
        <mxCell id="T0smnaooiY0XDKx1orWB-4" value="Пароль" style="ellipse;whiteSpace=wrap;html=1;rounded=1;shadow=0;strokeWidth=1;glass=0;" parent="WIyWlLk6GJQsqaUBKTNV-1" vertex="1">
          <mxGeometry x="7" y="120" width="96" height="40" as="geometry" />
        </mxCell>
        <mxCell id="T0smnaooiY0XDKx1orWB-6" value="Имя" style="ellipse;whiteSpace=wrap;html=1;rounded=1;shadow=0;strokeWidth=1;glass=0;" parent="WIyWlLk6GJQsqaUBKTNV-1" vertex="1">
          <mxGeometry x="7" y="210" width="110" height="40" as="geometry" />
        </mxCell>
        <mxCell id="T0smnaooiY0XDKx1orWB-34" value="" style="edgeStyle=orthogonalEdgeStyle;rounded=0;orthogonalLoop=1;jettySize=auto;html=1;" parent="WIyWlLk6GJQsqaUBKTNV-1" source="T0smnaooiY0XDKx1orWB-32" target="T0smnaooiY0XDKx1orWB-33" edge="1">
          <mxGeometry relative="1" as="geometry" />
        </mxCell>
        <mxCell id="T0smnaooiY0XDKx1orWB-36" value="" style="edgeStyle=orthogonalEdgeStyle;rounded=0;orthogonalLoop=1;jettySize=auto;html=1;" parent="WIyWlLk6GJQsqaUBKTNV-1" source="T0smnaooiY0XDKx1orWB-32" target="T0smnaooiY0XDKx1orWB-35" edge="1">
          <mxGeometry relative="1" as="geometry" />
        </mxCell>
        <mxCell id="T0smnaooiY0XDKx1orWB-38" value="" style="edgeStyle=orthogonalEdgeStyle;rounded=0;orthogonalLoop=1;jettySize=auto;html=1;" parent="WIyWlLk6GJQsqaUBKTNV-1" source="T0smnaooiY0XDKx1orWB-32" target="T0smnaooiY0XDKx1orWB-37" edge="1">
          <mxGeometry relative="1" as="geometry">
            <Array as="points">
              <mxPoint x="700" y="475" />
            </Array>
          </mxGeometry>
        </mxCell>
        <mxCell id="T0smnaooiY0XDKx1orWB-41" value="" style="edgeStyle=orthogonalEdgeStyle;rounded=0;orthogonalLoop=1;jettySize=auto;html=1;" parent="WIyWlLk6GJQsqaUBKTNV-1" source="T0smnaooiY0XDKx1orWB-32" target="T0smnaooiY0XDKx1orWB-40" edge="1">
          <mxGeometry relative="1" as="geometry" />
        </mxCell>
        <mxCell id="T0smnaooiY0XDKx1orWB-42" style="edgeStyle=orthogonalEdgeStyle;rounded=0;orthogonalLoop=1;jettySize=auto;html=1;" parent="WIyWlLk6GJQsqaUBKTNV-1" source="T0smnaooiY0XDKx1orWB-32" target="T0smnaooiY0XDKx1orWB-43" edge="1">
          <mxGeometry relative="1" as="geometry">
            <mxPoint x="370" y="490" as="targetPoint" />
          </mxGeometry>
        </mxCell>
        <mxCell id="T0smnaooiY0XDKx1orWB-46" style="edgeStyle=orthogonalEdgeStyle;rounded=0;orthogonalLoop=1;jettySize=auto;html=1;" parent="WIyWlLk6GJQsqaUBKTNV-1" source="T0smnaooiY0XDKx1orWB-32" target="T0smnaooiY0XDKx1orWB-47" edge="1">
          <mxGeometry relative="1" as="geometry">
            <mxPoint x="240" y="480" as="targetPoint" />
          </mxGeometry>
        </mxCell>
        <mxCell id="T0smnaooiY0XDKx1orWB-48" style="edgeStyle=orthogonalEdgeStyle;rounded=0;orthogonalLoop=1;jettySize=auto;html=1;" parent="WIyWlLk6GJQsqaUBKTNV-1" source="T0smnaooiY0XDKx1orWB-32" target="T0smnaooiY0XDKx1orWB-49" edge="1">
          <mxGeometry relative="1" as="geometry">
            <mxPoint x="70" y="480" as="targetPoint" />
          </mxGeometry>
        </mxCell>
        <mxCell id="T0smnaooiY0XDKx1orWB-32" value="Распорядок" style="rounded=1;whiteSpace=wrap;html=1;fillColor=#ffe6cc;strokeColor=#d79b00;" parent="WIyWlLk6GJQsqaUBKTNV-1" vertex="1">
          <mxGeometry x="640" y="370" width="120" height="60" as="geometry" />
        </mxCell>
        <mxCell id="T0smnaooiY0XDKx1orWB-33" value="ID распорядка" style="ellipse;whiteSpace=wrap;html=1;rounded=1;" parent="WIyWlLk6GJQsqaUBKTNV-1" vertex="1">
          <mxGeometry x="790" y="320" width="120" height="60" as="geometry" />
        </mxCell>
        <mxCell id="T0smnaooiY0XDKx1orWB-35" value="Название" style="ellipse;whiteSpace=wrap;html=1;rounded=1;" parent="WIyWlLk6GJQsqaUBKTNV-1" vertex="1">
          <mxGeometry x="760" y="470" width="100" height="50" as="geometry" />
        </mxCell>
        <mxCell id="T0smnaooiY0XDKx1orWB-37" value="Создатель" style="ellipse;whiteSpace=wrap;html=1;rounded=1;" parent="WIyWlLk6GJQsqaUBKTNV-1" vertex="1">
          <mxGeometry x="570" y="460" width="104" height="50" as="geometry" />
        </mxCell>
        <mxCell id="T0smnaooiY0XDKx1orWB-40" value="Описание" style="ellipse;whiteSpace=wrap;html=1;rounded=1;labelBackgroundColor=none;" parent="WIyWlLk6GJQsqaUBKTNV-1" vertex="1">
          <mxGeometry x="727" y="665" width="106" height="55" as="geometry" />
        </mxCell>
        <mxCell id="dD0ab8dJxXAKZgzQLhqr-9" value="" style="edgeStyle=orthogonalEdgeStyle;rounded=0;orthogonalLoop=1;jettySize=auto;html=1;entryX=1;entryY=0.5;entryDx=0;entryDy=0;" parent="WIyWlLk6GJQsqaUBKTNV-1" source="T0smnaooiY0XDKx1orWB-43" edge="1" target="T0smnaooiY0XDKx1orWB-51">
          <mxGeometry relative="1" as="geometry">
            <mxPoint x="577" y="635" as="targetPoint" />
          </mxGeometry>
        </mxCell>
        <mxCell id="T0smnaooiY0XDKx1orWB-43" value="Список упражнений" style="ellipse;whiteSpace=wrap;html=1;labelBackgroundColor=none;" parent="WIyWlLk6GJQsqaUBKTNV-1" vertex="1">
          <mxGeometry x="648.5" y="610" width="103" height="50" as="geometry" />
        </mxCell>
        <mxCell id="T0smnaooiY0XDKx1orWB-47" value="&lt;span style=&quot;font-size: 11.0pt ; line-height: 107% ; font-family: &amp;#34;calibri&amp;#34; , sans-serif&quot;&gt;Продолжительность&lt;/span&gt;" style="ellipse;whiteSpace=wrap;html=1;labelBackgroundColor=none;" parent="WIyWlLk6GJQsqaUBKTNV-1" vertex="1">
          <mxGeometry x="800" y="545" width="150" height="60" as="geometry" />
        </mxCell>
        <mxCell id="T0smnaooiY0XDKx1orWB-49" value="Списк коментирий" style="ellipse;whiteSpace=wrap;html=1;labelBackgroundColor=none;" parent="WIyWlLk6GJQsqaUBKTNV-1" vertex="1">
          <mxGeometry x="648.5" y="270" width="100" height="50" as="geometry" />
        </mxCell>
        <mxCell id="T0smnaooiY0XDKx1orWB-52" style="edgeStyle=orthogonalEdgeStyle;rounded=0;orthogonalLoop=1;jettySize=auto;html=1;" parent="WIyWlLk6GJQsqaUBKTNV-1" source="T0smnaooiY0XDKx1orWB-51" target="T0smnaooiY0XDKx1orWB-53" edge="1">
          <mxGeometry relative="1" as="geometry">
            <mxPoint x="240" y="680" as="targetPoint" />
          </mxGeometry>
        </mxCell>
        <mxCell id="T0smnaooiY0XDKx1orWB-56" style="edgeStyle=orthogonalEdgeStyle;rounded=0;orthogonalLoop=1;jettySize=auto;html=1;" parent="WIyWlLk6GJQsqaUBKTNV-1" source="T0smnaooiY0XDKx1orWB-51" target="T0smnaooiY0XDKx1orWB-57" edge="1">
          <mxGeometry relative="1" as="geometry">
            <mxPoint x="400" y="760" as="targetPoint" />
          </mxGeometry>
        </mxCell>
        <mxCell id="T0smnaooiY0XDKx1orWB-58" style="edgeStyle=orthogonalEdgeStyle;rounded=0;orthogonalLoop=1;jettySize=auto;html=1;" parent="WIyWlLk6GJQsqaUBKTNV-1" source="T0smnaooiY0XDKx1orWB-51" target="T0smnaooiY0XDKx1orWB-59" edge="1">
          <mxGeometry relative="1" as="geometry">
            <mxPoint x="490" y="680" as="targetPoint" />
          </mxGeometry>
        </mxCell>
        <mxCell id="T0smnaooiY0XDKx1orWB-53" value="Название" style="ellipse;whiteSpace=wrap;html=1;labelBackgroundColor=none;" parent="WIyWlLk6GJQsqaUBKTNV-1" vertex="1">
          <mxGeometry x="375" y="720" width="90" height="60" as="geometry" />
        </mxCell>
        <mxCell id="T0smnaooiY0XDKx1orWB-57" value="Оборудование" style="ellipse;whiteSpace=wrap;html=1;labelBackgroundColor=none;" parent="WIyWlLk6GJQsqaUBKTNV-1" vertex="1">
          <mxGeometry x="490" y="720" width="90" height="50" as="geometry" />
        </mxCell>
        <mxCell id="T0smnaooiY0XDKx1orWB-59" value="Описание" style="ellipse;whiteSpace=wrap;html=1;labelBackgroundColor=none;" parent="WIyWlLk6GJQsqaUBKTNV-1" vertex="1">
          <mxGeometry x="285" y="645" width="110" height="70" as="geometry" />
        </mxCell>
        <mxCell id="T0smnaooiY0XDKx1orWB-51" value="&lt;span style=&quot;background-color: rgb(255 , 255 , 255)&quot;&gt;Упражнений&lt;/span&gt;" style="rounded=1;whiteSpace=wrap;html=1;labelBackgroundColor=none;fillColor=#ffe6cc;strokeColor=#d79b00;" parent="WIyWlLk6GJQsqaUBKTNV-1" vertex="1">
          <mxGeometry x="450" y="605" width="120" height="60" as="geometry" />
        </mxCell>
        <mxCell id="ASNfStdSZMWCCT5HoIRm-7" value="" style="edgeStyle=orthogonalEdgeStyle;rounded=0;orthogonalLoop=1;jettySize=auto;html=1;" edge="1" parent="WIyWlLk6GJQsqaUBKTNV-1" source="ASNfStdSZMWCCT5HoIRm-4" target="ASNfStdSZMWCCT5HoIRm-6">
          <mxGeometry relative="1" as="geometry" />
        </mxCell>
        <mxCell id="ASNfStdSZMWCCT5HoIRm-9" value="" style="edgeStyle=orthogonalEdgeStyle;rounded=0;orthogonalLoop=1;jettySize=auto;html=1;" edge="1" parent="WIyWlLk6GJQsqaUBKTNV-1" source="ASNfStdSZMWCCT5HoIRm-4" target="ASNfStdSZMWCCT5HoIRm-8">
          <mxGeometry relative="1" as="geometry" />
        </mxCell>
        <mxCell id="ASNfStdSZMWCCT5HoIRm-12" value="" style="edgeStyle=orthogonalEdgeStyle;rounded=0;orthogonalLoop=1;jettySize=auto;html=1;" edge="1" parent="WIyWlLk6GJQsqaUBKTNV-1" source="ASNfStdSZMWCCT5HoIRm-4" target="ASNfStdSZMWCCT5HoIRm-11">
          <mxGeometry relative="1" as="geometry" />
        </mxCell>
        <mxCell id="ASNfStdSZMWCCT5HoIRm-14" value="" style="edgeStyle=orthogonalEdgeStyle;rounded=0;orthogonalLoop=1;jettySize=auto;html=1;" edge="1" parent="WIyWlLk6GJQsqaUBKTNV-1" source="ASNfStdSZMWCCT5HoIRm-4" target="ASNfStdSZMWCCT5HoIRm-13">
          <mxGeometry relative="1" as="geometry" />
        </mxCell>
        <mxCell id="ASNfStdSZMWCCT5HoIRm-4" value="Комментарии" style="rounded=1;whiteSpace=wrap;html=1;fontSize=12;glass=0;strokeWidth=1;shadow=0;fillColor=#ffe6cc;strokeColor=#d79b00;" vertex="1" parent="WIyWlLk6GJQsqaUBKTNV-1">
          <mxGeometry x="540" y="200" width="120" height="40" as="geometry" />
        </mxCell>
        <mxCell id="ASNfStdSZMWCCT5HoIRm-5" value="" style="endArrow=classic;html=1;rounded=0;exitX=0.5;exitY=0;exitDx=0;exitDy=0;entryX=0.667;entryY=1.025;entryDx=0;entryDy=0;entryPerimeter=0;" edge="1" parent="WIyWlLk6GJQsqaUBKTNV-1" source="T0smnaooiY0XDKx1orWB-49" target="ASNfStdSZMWCCT5HoIRm-4">
          <mxGeometry width="50" height="50" relative="1" as="geometry">
            <mxPoint x="610" y="420" as="sourcePoint" />
            <mxPoint x="660" y="370" as="targetPoint" />
          </mxGeometry>
        </mxCell>
        <mxCell id="ASNfStdSZMWCCT5HoIRm-6" value="&lt;span style=&quot;background-color: rgb(255 , 255 , 255)&quot;&gt;ID&lt;/span&gt;" style="ellipse;whiteSpace=wrap;html=1;rounded=1;glass=0;strokeWidth=1;shadow=0;" vertex="1" parent="WIyWlLk6GJQsqaUBKTNV-1">
          <mxGeometry x="710" y="200" width="70" height="40" as="geometry" />
        </mxCell>
        <mxCell id="ASNfStdSZMWCCT5HoIRm-8" value="&lt;span style=&quot;background-color: rgb(255 , 255 , 255)&quot;&gt;Id&amp;nbsp; раяпорядка&lt;/span&gt;" style="ellipse;whiteSpace=wrap;html=1;rounded=1;glass=0;strokeWidth=1;shadow=0;" vertex="1" parent="WIyWlLk6GJQsqaUBKTNV-1">
          <mxGeometry x="540" y="270" width="100" height="50" as="geometry" />
        </mxCell>
        <mxCell id="ASNfStdSZMWCCT5HoIRm-10" value="ссылаться" style="endArrow=classic;html=1;rounded=0;exitX=0.5;exitY=1;exitDx=0;exitDy=0;entryX=0;entryY=0.5;entryDx=0;entryDy=0;" edge="1" parent="WIyWlLk6GJQsqaUBKTNV-1" source="ASNfStdSZMWCCT5HoIRm-8" target="T0smnaooiY0XDKx1orWB-32">
          <mxGeometry x="-0.0769" y="-3" width="50" height="50" relative="1" as="geometry">
            <mxPoint x="610" y="420" as="sourcePoint" />
            <mxPoint x="660" y="370" as="targetPoint" />
            <mxPoint as="offset" />
          </mxGeometry>
        </mxCell>
        <mxCell id="ASNfStdSZMWCCT5HoIRm-11" value="&lt;span style=&quot;background-color: rgb(255 , 255 , 255)&quot;&gt;Содержание&lt;/span&gt;" style="ellipse;whiteSpace=wrap;html=1;rounded=1;glass=0;strokeWidth=1;shadow=0;" vertex="1" parent="WIyWlLk6GJQsqaUBKTNV-1">
          <mxGeometry x="540" y="130" width="120" height="60" as="geometry" />
        </mxCell>
        <mxCell id="ASNfStdSZMWCCT5HoIRm-13" value="&lt;span style=&quot;background-color: rgb(255 , 255 , 255)&quot;&gt;Id получателя&lt;/span&gt;" style="ellipse;whiteSpace=wrap;html=1;rounded=1;glass=0;strokeWidth=1;shadow=0;" vertex="1" parent="WIyWlLk6GJQsqaUBKTNV-1">
          <mxGeometry x="416" y="230" width="120" height="60" as="geometry" />
        </mxCell>
        <mxCell id="ASNfStdSZMWCCT5HoIRm-15" value="ссылаться" style="endArrow=classic;html=1;rounded=0;exitX=0;exitY=0.5;exitDx=0;exitDy=0;entryX=1;entryY=0.5;entryDx=0;entryDy=0;" edge="1" parent="WIyWlLk6GJQsqaUBKTNV-1" source="ASNfStdSZMWCCT5HoIRm-13" target="WIyWlLk6GJQsqaUBKTNV-7">
          <mxGeometry x="-0.0769" y="-3" width="50" height="50" relative="1" as="geometry">
            <mxPoint x="560" y="350" as="sourcePoint" />
            <mxPoint x="650" y="410" as="targetPoint" />
            <mxPoint as="offset" />
          </mxGeometry>
        </mxCell>
        <mxCell id="ASNfStdSZMWCCT5HoIRm-16" value="&lt;span style=&quot;background-color: rgb(255 , 255 , 255)&quot;&gt;Дополнительная информация&lt;span style=&quot;white-space: pre&quot;&gt;	&lt;/span&gt;&lt;/span&gt;" style="ellipse;whiteSpace=wrap;html=1;rounded=1;glass=0;strokeWidth=1;shadow=0;" vertex="1" parent="WIyWlLk6GJQsqaUBKTNV-1">
          <mxGeometry x="70" y="270" width="120" height="60" as="geometry" />
        </mxCell>
        <mxCell id="ASNfStdSZMWCCT5HoIRm-18" value="&lt;span lang=&quot;RU&quot; style=&quot;font-size: 12pt ; line-height: 107% ; font-family: &amp;#34;times new roman&amp;#34; , serif&quot;&gt;Ид&lt;/span&gt;&lt;span lang=&quot;VI&quot; style=&quot;font-size: 12pt ; line-height: 107% ; font-family: &amp;#34;times new roman&amp;#34; , serif&quot;&gt;ентификатор роли&lt;/span&gt;" style="ellipse;whiteSpace=wrap;html=1;rounded=1;glass=0;strokeWidth=1;shadow=0;" vertex="1" parent="WIyWlLk6GJQsqaUBKTNV-1">
          <mxGeometry x="210" y="270" width="120" height="60" as="geometry" />
        </mxCell>
        <mxCell id="ASNfStdSZMWCCT5HoIRm-20" value="&lt;span lang=&quot;RU&quot; style=&quot;font-size: 12pt ; line-height: 107% ; font-family: &amp;#34;times new roman&amp;#34; , serif&quot;&gt;Список распорядык&amp;nbsp;&lt;/span&gt;" style="ellipse;whiteSpace=wrap;html=1;rounded=1;glass=0;strokeWidth=1;shadow=0;" vertex="1" parent="WIyWlLk6GJQsqaUBKTNV-1">
          <mxGeometry x="330" y="350" width="120" height="60" as="geometry" />
        </mxCell>
        <mxCell id="ASNfStdSZMWCCT5HoIRm-22" value="Включает" style="endArrow=classic;html=1;rounded=1;sketch=0;curved=0;exitX=1;exitY=0.5;exitDx=0;exitDy=0;entryX=0;entryY=0.5;entryDx=0;entryDy=0;" edge="1" parent="WIyWlLk6GJQsqaUBKTNV-1" source="ASNfStdSZMWCCT5HoIRm-20" target="T0smnaooiY0XDKx1orWB-32">
          <mxGeometry width="50" height="50" relative="1" as="geometry">
            <mxPoint x="610" y="410" as="sourcePoint" />
            <mxPoint x="660" y="360" as="targetPoint" />
          </mxGeometry>
        </mxCell>
        <mxCell id="ASNfStdSZMWCCT5HoIRm-23" value="&lt;span lang=&quot;RU&quot; style=&quot;font-size: 12pt ; line-height: 107% ; font-family: &amp;#34;times new roman&amp;#34; , serif&quot;&gt;Список следующих&lt;/span&gt;" style="ellipse;whiteSpace=wrap;html=1;rounded=1;glass=0;strokeWidth=1;shadow=0;" vertex="1" parent="WIyWlLk6GJQsqaUBKTNV-1">
          <mxGeometry x="420" y="10" width="120" height="60" as="geometry" />
        </mxCell>
        <mxCell id="ASNfStdSZMWCCT5HoIRm-25" value="&lt;span lang=&quot;RU&quot; style=&quot;font-size: 12pt ; line-height: 107% ; font-family: &amp;#34;times new roman&amp;#34; , serif&quot;&gt;Подписчик списка&lt;/span&gt;" style="ellipse;whiteSpace=wrap;html=1;rounded=1;glass=0;strokeWidth=1;shadow=0;" vertex="1" parent="WIyWlLk6GJQsqaUBKTNV-1">
          <mxGeometry x="285" y="10" width="120" height="60" as="geometry" />
        </mxCell>
        <mxCell id="ASNfStdSZMWCCT5HoIRm-31" value="" style="edgeStyle=orthogonalEdgeStyle;curved=0;rounded=1;sketch=0;orthogonalLoop=1;jettySize=auto;html=1;" edge="1" parent="WIyWlLk6GJQsqaUBKTNV-1" source="ASNfStdSZMWCCT5HoIRm-28" target="ASNfStdSZMWCCT5HoIRm-30">
          <mxGeometry relative="1" as="geometry" />
        </mxCell>
        <mxCell id="ASNfStdSZMWCCT5HoIRm-28" value="&lt;span lang=&quot;RU&quot; style=&quot;font-size: 12pt ; line-height: 107% ; font-family: &amp;#34;times new roman&amp;#34; , serif&quot;&gt;Список уведомления&lt;/span&gt;" style="ellipse;whiteSpace=wrap;html=1;rounded=1;glass=0;strokeWidth=1;shadow=0;" vertex="1" parent="WIyWlLk6GJQsqaUBKTNV-1">
          <mxGeometry x="140" y="350" width="120" height="60" as="geometry" />
        </mxCell>
        <mxCell id="ASNfStdSZMWCCT5HoIRm-33" value="" style="edgeStyle=orthogonalEdgeStyle;curved=0;rounded=1;sketch=0;orthogonalLoop=1;jettySize=auto;html=1;" edge="1" parent="WIyWlLk6GJQsqaUBKTNV-1" source="ASNfStdSZMWCCT5HoIRm-30" target="ASNfStdSZMWCCT5HoIRm-32">
          <mxGeometry relative="1" as="geometry" />
        </mxCell>
        <mxCell id="ASNfStdSZMWCCT5HoIRm-37" value="" style="edgeStyle=orthogonalEdgeStyle;curved=0;rounded=1;sketch=0;orthogonalLoop=1;jettySize=auto;html=1;" edge="1" parent="WIyWlLk6GJQsqaUBKTNV-1" source="ASNfStdSZMWCCT5HoIRm-30" target="ASNfStdSZMWCCT5HoIRm-36">
          <mxGeometry relative="1" as="geometry" />
        </mxCell>
        <mxCell id="ASNfStdSZMWCCT5HoIRm-39" value="" style="edgeStyle=orthogonalEdgeStyle;curved=0;rounded=1;sketch=0;orthogonalLoop=1;jettySize=auto;html=1;" edge="1" parent="WIyWlLk6GJQsqaUBKTNV-1" source="ASNfStdSZMWCCT5HoIRm-30" target="ASNfStdSZMWCCT5HoIRm-38">
          <mxGeometry relative="1" as="geometry" />
        </mxCell>
        <mxCell id="ASNfStdSZMWCCT5HoIRm-42" value="" style="edgeStyle=orthogonalEdgeStyle;curved=0;rounded=1;sketch=0;orthogonalLoop=1;jettySize=auto;html=1;" edge="1" parent="WIyWlLk6GJQsqaUBKTNV-1" source="ASNfStdSZMWCCT5HoIRm-30" target="ASNfStdSZMWCCT5HoIRm-41">
          <mxGeometry relative="1" as="geometry" />
        </mxCell>
        <mxCell id="ASNfStdSZMWCCT5HoIRm-30" value="Уведомления" style="whiteSpace=wrap;html=1;rounded=1;glass=0;strokeWidth=1;shadow=0;fillColor=#ffe6cc;strokeColor=#d79b00;" vertex="1" parent="WIyWlLk6GJQsqaUBKTNV-1">
          <mxGeometry x="140" y="470" width="120" height="60" as="geometry" />
        </mxCell>
        <mxCell id="ASNfStdSZMWCCT5HoIRm-32" value="ID" style="ellipse;whiteSpace=wrap;html=1;rounded=1;glass=0;strokeWidth=1;shadow=0;" vertex="1" parent="WIyWlLk6GJQsqaUBKTNV-1">
          <mxGeometry x="190" y="580" width="120" height="60" as="geometry" />
        </mxCell>
        <mxCell id="ASNfStdSZMWCCT5HoIRm-36" value="Описание" style="ellipse;whiteSpace=wrap;html=1;rounded=1;glass=0;strokeWidth=1;shadow=0;" vertex="1" parent="WIyWlLk6GJQsqaUBKTNV-1">
          <mxGeometry x="40" y="570" width="120" height="60" as="geometry" />
        </mxCell>
        <mxCell id="ASNfStdSZMWCCT5HoIRm-38" value="Id распорядка" style="ellipse;whiteSpace=wrap;html=1;rounded=1;glass=0;strokeWidth=1;shadow=0;" vertex="1" parent="WIyWlLk6GJQsqaUBKTNV-1">
          <mxGeometry x="296" y="470" width="120" height="60" as="geometry" />
        </mxCell>
        <mxCell id="ASNfStdSZMWCCT5HoIRm-40" value="&#xa;&#xa;&lt;span style=&quot;color: rgb(0, 0, 0); font-family: helvetica; font-size: 11px; font-style: normal; font-weight: 400; letter-spacing: normal; text-align: center; text-indent: 0px; text-transform: none; word-spacing: 0px; background-color: rgb(255, 255, 255); display: inline; float: none;&quot;&gt;ссылаться&lt;/span&gt;&#xa;&#xa;" style="endArrow=classic;html=1;rounded=1;sketch=0;curved=0;exitX=1;exitY=0.5;exitDx=0;exitDy=0;entryX=0;entryY=0.5;entryDx=0;entryDy=0;" edge="1" parent="WIyWlLk6GJQsqaUBKTNV-1" source="ASNfStdSZMWCCT5HoIRm-38" target="T0smnaooiY0XDKx1orWB-32">
          <mxGeometry x="-0.4238" width="50" height="50" relative="1" as="geometry">
            <mxPoint x="610" y="410" as="sourcePoint" />
            <mxPoint x="660" y="360" as="targetPoint" />
            <Array as="points">
              <mxPoint x="500" y="460" />
            </Array>
            <mxPoint y="1" as="offset" />
          </mxGeometry>
        </mxCell>
        <mxCell id="ASNfStdSZMWCCT5HoIRm-41" value="ID получателя" style="ellipse;whiteSpace=wrap;html=1;rounded=1;glass=0;strokeWidth=1;shadow=0;" vertex="1" parent="WIyWlLk6GJQsqaUBKTNV-1">
          <mxGeometry x="2" y="420" width="120" height="60" as="geometry" />
        </mxCell>
      </root>
    </mxGraphModel>
  </diagram>
</mxfile>
